<svg width="1280" height="380" viewBox="0 0 1280 380" fill="none" xmlns="http://www.w3.org/2000/svg" font-family="'Segoe UI', Helvetica, Arial, sans-serif">
  <defs>
    <linearGradient id="bg3" x1="0" y1="0" x2="1280" y2="380" gradientUnits="userSpaceOnUse">
      <stop offset="0" stop-color="#0a0a0a"/>
      <stop offset="1" stop-color="#000000"/>
    </linearGradient>
    <pattern id="grid3" width="40" height="40" patternUnits="userSpaceOnUse">
      <path d="M40 0H0V40" fill="none" stroke="#ffffff" stroke-opacity="0.05"/>
    </pattern>
    <radialGradient id="core" cx="0.5" cy="0.5" r="0.5">
      <stop offset="0" stop-color="#ffffff" stop-opacity="0.14"/>
      <stop offset="1" stop-color="#ffffff" stop-opacity="0"/>
    </radialGradient>
  </defs>
  <rect width="1280" height="380" fill="url(#bg3)"/>
  <rect width="1280" height="380" fill="url(#grid3)"/>
  <ellipse cx="1010" cy="190" rx="300" ry="240" fill="url(#core)"/>

  <!-- text (left) -->
  <text x="90" y="110" fill="#ffffff" font-size="40" font-weight="700" letter-spacing="-1">AI-powered solutions</text>
  <text x="90" y="160" fill="#ffffff" fill-opacity="0.8" font-size="20">
    <tspan x="90" dy="0">I help businesses get more done with AI: chatbots, automation</tspan>
    <tspan x="90" dy="30">that clears out repetitive work, assistants, and Telegram bots</tspan>
    <tspan x="90" dy="30">that actually handle tasks. Everything fits the tools you already</tspan>
    <tspan x="90" dy="30">run, and the results are easy to measure.</tspan>
  </text>
  <text x="90" y="320" fill="#ffffff" fill-opacity="0.6" font-size="18">LLM apps · Automation · Agents · Telegram bots</text>

  <!-- neural network (right) -->
  <g stroke="#ffffff" stroke-opacity="0.22" stroke-width="1">
    <path d="M860 100 1010 80M860 100 1010 190M860 100 1010 300M860 190 1010 80M860 190 1010 190M860 190 1010 300M860 280 1010 80M860 280 1010 190M860 280 1010 300"/>
    <path d="M1010 80 1160 140M1010 80 1160 240M1010 190 1160 140M1010 190 1160 240M1010 300 1160 140M1010 300 1160 240"/>
  </g>
  <g fill="#0a0a0a" stroke="#ffffff" stroke-width="1.8">
    <circle cx="860" cy="100" r="13"/>
    <circle cx="860" cy="190" r="13"/>
    <circle cx="860" cy="280" r="13"/>
    <circle cx="1160" cy="140" r="13"/>
    <circle cx="1160" cy="240" r="13"/>
  </g>
  <g fill="#ffffff" stroke="#ffffff" stroke-width="1.8">
    <circle cx="1010" cy="80" r="15"/>
    <circle cx="1010" cy="190" r="18"/>
    <circle cx="1010" cy="300" r="15"/>
  </g>
  <g fill="#ffffff">
    <circle cx="935" cy="145" r="2.5"/>
    <circle cx="1085" cy="215" r="2.5"/>
    <circle cx="1085" cy="110" r="2.5"/>
    <circle cx="935" cy="235" r="2.5"/>
  </g>
</svg>
